<?xml version="1.0" encoding="UTF-8"?>
<svg width="13px" height="14px" viewBox="0 0 13 14" version="1.1" xmlns="http://www.w3.org/2000/svg" xmlns:xlink="http://www.w3.org/1999/xlink">
    <title>icon_phone</title>
    <g id="页面-1" stroke="none" stroke-width="1" fill="none" fill-rule="evenodd">
        <g id="College-Counseling" transform="translate(-999.000000, -5185.000000)" fill="#FFFFFF" fill-rule="nonzero">
            <g id="编组-46" transform="translate(0.000000, 4939.000000)">
                <g id="编组-33" transform="translate(120.000000, 41.000000)">
                    <g id="编组-31" transform="translate(879.000000, 0.000000)">
                        <g id="编组-19" transform="translate(0.000000, 138.000000)">
                            <g id="编组-30" transform="translate(0.000000, 28.000000)">
                                <g id="编组-29" transform="translate(0.000000, 10.000000)">
                                    <g id="phone-outline" transform="translate(0.000000, 29.000000)">
                                        <path d="M0.130708124,6.328125 L7.6452375,13.8426563 C7.713675,13.9110938 7.7943,13.952625 7.8871125,13.9673438 C7.979925,13.9820625 8.07023437,13.969875 8.15805,13.9307813 L11.8639687,12.34875 C12.02025,12.2803125 12.1130625,12.1656563 12.1424062,12.0046875 C12.1718437,11.8437188 12.127875,11.7045 12.0106875,11.5870313 L9.76959375,9.3309375 C9.6915,9.2625 9.6035625,9.21859688 9.5056875,9.19921875 C9.40790625,9.17984063 9.31508437,9.19453125 9.22726875,9.24328125 L8.20164375,9.75609375 L4.21726875,5.77171875 L4.73008125,4.74609375 C4.77883125,4.65827813 4.79352187,4.56546563 4.77414375,4.46765625 C4.75476562,4.36984688 4.7108625,4.28187188 4.642425,4.20375 L2.38633125,1.96265625 C2.26914375,1.84546875 2.129925,1.80156281 1.968675,1.8309375 C1.807425,1.86031219 1.69274062,1.95312188 1.6246125,2.109375 L0.0425825618,5.8153125 C0.00352010558,5.90312813 -0.00866731942,5.9934375 0.00602018371,6.08625 C0.0207076868,6.1790625 0.0622701556,6.2596875 0.130708124,6.328125 L0.130708124,6.328125 Z M1.02414375,5.88890625 L2.21055,3.10546875 L3.74851875,4.62890625 L3.07445625,5.96203125 L8.0108625,10.8984375 L9.3439875,10.224375 L10.8674062,11.7623438 L8.0839875,12.94875 L1.02414375,5.88890625 Z M6.4733625,4.6875 L6.4733625,3.75 C7.53773437,3.77937188 8.4214875,4.145625 9.1246125,4.84875 C9.82771875,5.551875 10.194,6.43562813 10.2233437,7.5 L9.2858625,7.5 C9.266175,6.69906562 8.99273437,6.03499688 8.46555,5.5078125 C7.93836562,4.98062812 7.27429687,4.7071875 6.4733625,4.6875 Z M6.4733625,1.875 L6.4733625,0.9375 C8.32898437,0.98625 9.8745,1.62828094 11.10975,2.86359375 C12.3450937,4.09890937 12.9870937,5.64437812 13.0358437,7.5 L12.0983437,7.5 C12.0593437,5.908125 11.5099687,4.5825 10.4502187,3.523125 C9.3905625,2.46375 8.06492812,1.914375 6.4733625,1.875 Z" id="Vector"></path>
                                    </g>
                                </g>
                            </g>
                        </g>
                    </g>
                </g>
            </g>
        </g>
    </g>
</svg>