<?xml version="1.0" encoding="UTF-8"?>
<svg width="24px" height="21px" viewBox="0 0 24 21" version="1.1" xmlns="http://www.w3.org/2000/svg" xmlns:xlink="http://www.w3.org/1999/xlink">
    <title>icon_double arrow </title>
    <g id="页面-1" stroke="none" stroke-width="1" fill="none" fill-rule="evenodd">
        <g id="Test-Prep" transform="translate(-1232.000000, -3144.000000)" fill="#000000" fill-rule="nonzero">
            <g id="编组-37备份" transform="translate(184.000000, 3131.000000)">
                <g id="编组-41" transform="translate(1048.000000, 13.000000)">
                    <path d="M11.3930215,8.9894668 C11.7123105,8.67017773 12.2295527,8.67017773 12.5488418,8.9894668 L12.5488418,8.9894668 L22.952373,19.3930215 C23.2716621,19.7123105 23.2716621,20.2295527 22.952373,20.5488418 C22.633084,20.8681309 22.1158418,20.8681309 21.7965527,20.5488418 L21.7965527,20.5488418 L11.9709199,10.7229512 L2.14528711,20.5488418 C1.82599805,20.8681309 1.30875586,20.8681309 0.989466797,20.5488418 C0.670177734,20.2295527 0.670177734,19.7123105 0.989466797,19.3927402 L0.989466797,19.3927402 Z M11.3930215,0.739466797 C11.7123105,0.420177734 12.2295527,0.420177734 12.5488418,0.739466797 L12.5488418,0.739466797 L22.952373,11.1430215 C23.2716621,11.4623105 23.2716621,11.9795527 22.952373,12.2988418 C22.633084,12.6181309 22.1158418,12.6181309 21.7965527,12.2988418 L21.7965527,12.2988418 L11.9709199,2.47295117 L2.14528711,12.2988418 C1.82599805,12.6181309 1.30875586,12.6181309 0.989466797,12.2988418 C0.670177734,11.9795527 0.670177734,11.4623105 0.989466797,11.1427402 L0.989466797,11.1427402 Z" id="形状结合"></path>
                </g>
            </g>
        </g>
    </g>
</svg>