<?xml version="1.0" encoding="UTF-8"?>
<svg width="14px" height="12px" viewBox="0 0 14 12" version="1.1" xmlns="http://www.w3.org/2000/svg" xmlns:xlink="http://www.w3.org/1999/xlink">
    <title>icon_email</title>
    <g id="页面-1" stroke="none" stroke-width="1" fill="none" fill-rule="evenodd">
        <g id="College-Counseling" transform="translate(-999.000000, -5156.000000)" fill="#FFFFFF" fill-rule="nonzero">
            <g id="编组-46" transform="translate(0.000000, 4939.000000)">
                <g id="编组-33" transform="translate(120.000000, 41.000000)">
                    <g id="编组-31" transform="translate(879.000000, 0.000000)">
                        <g id="编组-19" transform="translate(0.000000, 138.000000)">
                            <g id="编组-30" transform="translate(0.000000, 28.000000)">
                                <g id="编组-50" transform="translate(0.000000, 10.000000)">
                                    <path d="M1.50462735,2.1171875 L1.50462735,9.2421875 C1.5138275,9.49274703 1.60199938,9.70145609 1.76914297,9.86829687 C1.93628657,10.0351377 2.14498672,10.1233095 2.39525235,10.1328125 L11.3015023,10.1328125 C11.5520352,10.1236123 11.7607977,10.0354405 11.9276117,9.86829687 C12.0944258,9.70115328 12.1825977,9.49245313 12.1921273,9.2421875 L12.1921273,2.1171875 L1.50462735,2.1171875 Z M1.50462735,1.2265625 L12.1921273,1.2265625 C12.4426602,1.2357656 12.6514227,1.3239372 12.8182367,1.49107813 C12.9850508,1.65821905 13.0732227,1.86692188 13.0827523,2.1171875 L13.0827523,9.2421875 C13.0735789,9.74331547 12.8995508,10.1630937 12.5608461,10.5015313 C12.2221414,10.8399688 11.8023008,11.0139078 11.3015023,11.0234375 L2.39525235,11.0234375 C1.89412438,11.0142641 1.4743461,10.8402359 1.1359086,10.5015313 C0.797471097,10.1628266 0.623502377,9.74301266 0.614002347,9.2421875 L0.614002347,2.1171875 C0.623205442,1.8666253 0.71137705,1.65792158 0.878517972,1.49107813 C1.04565889,1.32423467 1.25436172,1.23606253 1.50462735,1.2265625 Z M12.3034555,2.1171875 L8.86608828,6.05553125 C8.60631969,6.34320313 8.30247407,6.56585937 7.9545336,6.7235 C7.60659313,6.88114063 7.23787438,6.95996094 6.84837735,6.95996094 C6.45888032,6.95996094 6.09016157,6.88114063 5.7422211,6.7235 C5.39428063,6.56585937 5.090435,6.34320313 4.83066641,6.05553125 L1.39329922,2.1171875 L12.3034555,2.1171875 L12.3034555,2.1171875 Z M2.57604922,2.1171875 L5.51243985,5.47083594 C5.67958344,5.66558891 5.87908344,5.81402047 6.11093985,5.91614844 C6.34279625,6.01827641 6.58860875,6.06933594 6.84837735,6.06933594 C7.10814594,6.06933594 7.35395844,6.01827641 7.58581485,5.91614844 C7.81767125,5.81402047 8.01717125,5.66558891 8.18431485,5.47083594 L11.1207055,2.1171875 L2.57604922,2.1171875 L2.57604922,2.1171875 Z" id="Vector"></path>
                                </g>
                            </g>
                        </g>
                    </g>
                </g>
            </g>
        </g>
    </g>
</svg>