<?xml version="1.0" encoding="UTF-8"?>
<svg width="11px" height="15px" viewBox="0 0 11 15" version="1.1" xmlns="http://www.w3.org/2000/svg" xmlns:xlink="http://www.w3.org/1999/xlink">
    <title>icon_location</title>
    <g id="页面-1" stroke="none" stroke-width="1" fill="none" fill-rule="evenodd">
        <g id="College-Counseling" transform="translate(-1000.000000, -5215.000000)" fill="#FFFFFF" fill-rule="nonzero">
            <g id="编组-46" transform="translate(0.000000, 4939.000000)">
                <g id="编组-33" transform="translate(120.000000, 41.000000)">
                    <g id="编组-31" transform="translate(879.000000, 0.000000)">
                        <g id="编组-19" transform="translate(0.000000, 138.000000)">
                            <g id="编组-30" transform="translate(0.000000, 28.000000)">
                                <g id="编组-29" transform="translate(0.000000, 10.000000)">
                                    <g id="location-outline" transform="translate(1.000000, 59.000000)">
                                        <path d="M9.69212752,6.09375 C9.66275547,4.9021875 9.2500961,3.90859687 8.4541586,3.11296875 C7.6582211,2.31734062 6.66463047,1.90469063 5.47337735,1.875 C4.28181485,1.90437188 3.28822422,2.31703125 2.4925961,3.11296875 C1.69696797,3.90890625 1.28431797,4.90249687 1.25462735,6.09375 C1.25462735,6.9628125 1.60368672,7.95640312 2.30181485,9.07453125 C2.99994297,10.1926594 4.05712422,11.4304687 5.47337735,12.7879687 C6.88931172,11.4304687 7.94650235,10.1926594 8.64493985,9.07453125 C9.34337735,7.95640312 9.6924086,6.9628125 9.69212752,6.09375 L9.69212752,6.09375 Z M5.47337735,14.0625 C2.03587422,10.9375313 0.317127347,8.28124688 0.317127347,6.09375 C0.356189878,4.62874688 0.859158909,3.41296875 1.8260336,2.44640625 C2.79290547,1.47984375 4.00869297,0.976875 5.47337735,0.9375 C6.93838047,0.976562531 8.1541586,1.47953156 9.1207211,2.44640625 C10.0872836,3.41327812 10.5902523,4.62906562 10.6296273,6.09375 C10.6296273,8.28124688 8.91088047,10.9375313 5.47337735,14.0625 Z M5.47337735,7.5 C5.87368985,7.49031563 6.20572422,7.35359062 6.4694711,7.08984375 C6.73321797,6.82609688 6.8650961,6.4940625 6.8650961,6.09375 C6.8650961,5.6934375 6.73321797,5.36140313 6.4694711,5.09765625 C6.20572422,4.83390938 5.87368985,4.70203125 5.47337735,4.70203125 C5.07306485,4.70203125 4.74103047,4.83390938 4.4772836,5.09765625 C4.21353672,5.36140313 4.0816586,5.6934375 4.0816586,6.09375 C4.0816586,6.4940625 4.21353672,6.82609688 4.4772836,7.08984375 C4.74103047,7.35359062 5.07306485,7.49031563 5.47337735,7.5 Z M5.47337735,8.4375 C4.80931797,8.4178125 4.25759922,8.18828437 3.8182211,7.74890625 C3.37884297,7.30952812 3.14931485,6.75780938 3.12962735,6.09375 C3.14931485,5.42969063 3.37884297,4.87797188 3.8182211,4.43859375 C4.25759922,3.99921562 4.80931797,3.7696875 5.47337735,3.75 C6.13743672,3.7696875 6.68915547,3.99921562 7.1285336,4.43859375 C7.56791172,4.87797188 7.79743985,5.42969063 7.81712735,6.09375 C7.79743985,6.75780938 7.56791172,7.30952812 7.1285336,7.74890625 C6.68915547,8.18828437 6.13743672,8.4178125 5.47337735,8.4375 L5.47337735,8.4375 Z" id="Vector"></path>
                                    </g>
                                </g>
                            </g>
                        </g>
                    </g>
                </g>
            </g>
        </g>
    </g>
</svg>