<?xml version="1.0" encoding="UTF-8"?>
<svg width="18px" height="18px" viewBox="0 0 18 18" version="1.1" xmlns="http://www.w3.org/2000/svg" xmlns:xlink="http://www.w3.org/1999/xlink">
    <title>icon_language</title>
    <g id="页面-1" stroke="none" stroke-width="1" fill="none" fill-rule="evenodd" opacity="0.4">
        <g id="Home" transform="translate(-1350.000000, -37.000000)" fill="#000000" fill-rule="nonzero">
            <g id="编组-15" transform="translate(30.000000, 27.000000)">
                <g id="编组-17" transform="translate(877.000000, 6.000000)">
                    <g id="编组-23" transform="translate(443.000000, 0.000000)">
                        <path d="M18,12.9936813 C18,8.02630502 13.97,4 9,4 C4.03,4 0,8.02830516 0,12.9936813 C0,17.5820289 3.44,21.3673157 7.87999999,21.9183574 C8.28,21.9953633 8.68999999,22.018365 9.09599999,21.9853625 C14.02,21.9373589 18,17.9290552 18,12.9946814 L18,12.9936813 Z M16.6805778,13 C16.6662151,12.4737942 16.6328509,11.9505993 16.5807692,11.4348689 C16.5847616,11.2539564 16.5864726,11.0813754 16.5836209,10.9230769 C16.6537721,11.6050694 16.6862812,12.3025347 16.6800075,13 L16.6805778,13 L16.6805778,13 Z M1.38461538,12.7595251 C1.38461538,12.1956579 1.44226091,11.6462754 1.5534344,11.1144814 C1.89621936,11.4828056 2.70531538,11.4745287 2.90192775,10.9230769 C3.25500655,11.1351737 3.7285233,11.1734546 3.7285233,11.5955791 C3.7285233,12.9892104 3.77690436,14.4821651 5.03687068,14.5059614 C5.07186974,14.5059614 5.73994011,14.7604776 6.05699046,15.5881725 C6.16713457,15.8737272 6.60256411,15.5881725 7.07608086,15.5881725 C7.314898,15.5881725 7.07608086,15.9916738 7.07608086,16.8607535 C7.07608086,17.7277639 8.93720757,19.062422 8.93720757,19.062422 C8.92588433,19.5331735 8.94647202,20.003925 9,20.470538 C8.64400207,20.4580442 8.28851063,20.5070372 7.94899868,20.6153846 C4.15358229,19.9449091 1.38540107,16.6316798 1.38461538,12.7584904 L1.38461538,12.7595251 L1.38461538,12.7595251 Z M10.9217719,20.6153846 C10.880469,20.4187291 10.7008011,20.3103679 10.3703775,20.3946488 C10.6336838,19.3070234 10.761723,18.69699 11.3110523,18.2344482 C12.1040691,17.5652174 11.403984,16.8207358 10.7999282,16.9100335 C10.3239116,16.9792642 10.6254232,16.3361204 10.2010353,16.3 C9.77561489,16.2658863 9.21905754,15.4441472 8.60777375,15.161204 C8.28251297,15.0117057 7.96448019,14.6093645 7.46368183,14.5923077 C7.02070762,14.5752508 6.37121862,14.9565217 6.37121862,14.6625418 C6.37121862,13.7173913 6.27415666,13.0421405 6.25350518,12.7722408 C6.236984,12.5555184 6.10894483,12.6989967 6.70577257,12.7120401 C7.03413109,12.7220736 6.8751147,12.0759197 7.19727776,12.0508361 C7.51427796,12.0257525 8.27012209,12.3397993 8.46218084,12.2143813 C8.64184871,12.0979933 9.77768002,15.1120401 9.77768002,12.7120401 C9.77768002,12.4280936 9.62692422,11.9334448 9.77768002,11.6625418 C10.3765729,10.5989967 10.9393257,9.73010034 10.8897621,9.60267559 C10.8598175,9.53244148 10.2743481,9.4722408 9.80659209,9.6257525 C9.64860828,9.67591972 9.85615565,9.91672241 9.63105453,9.96889632 C8.78021361,10.1595318 8.02746721,9.7451505 8.29077355,9.35685619 C8.55924278,8.95852843 9.5370903,9.18327759 9.62279394,8.38361204 C9.67235749,7.92508362 9.71262786,7.39531772 9.73947478,7.00100335 C10.8856319,7.17458194 10.7575927,5.55719064 9.05591085,5.38461538 C12.4133946,5.42276503 15.385906,7.50216481 16.488378,10.5839465 C16.4367186,10.5361546 16.3703238,10.5061885 16.299417,10.4986622 C15.7841626,9.24949833 14.5337156,10.1535117 14.9581035,11.255184 C12.6885059,12.9508361 13.2698451,14.1337793 14.0153635,14.8110368 C14.4077416,15.1672241 14.7815333,15.70301 15.0262533,16.0862876 C14.7598493,16.838796 16.0020357,16.5377926 16.6153846,15.2625418 C15.828163,17.900987 13.6624786,19.9374218 10.9228045,20.6153846 L10.9217719,20.6153846 Z" id="形状"></path>
                    </g>
                </g>
            </g>
        </g>
    </g>
</svg>