<?xml version="1.0" encoding="UTF-8"?>
<svg width="12px" height="8px" viewBox="0 0 12 8" version="1.1" xmlns="http://www.w3.org/2000/svg" xmlns:xlink="http://www.w3.org/1999/xlink">
    <title>icon_arrow</title>
    <g id="页面-1" stroke="none" stroke-width="1" fill="none" fill-rule="evenodd">
        <g id="Home" transform="translate(-1066.000000, -25.000000)" fill="#000000" fill-rule="nonzero">
            <g id="下拉" transform="translate(1066.000000, 23.000000)">
                <g id="编组-52" transform="translate(0.000000, 2.000000)">
                    <path d="M6,5.332 L1.542,0.874 C1.212,0.544 0.684,0.544 0.354,0.874 C0.024,1.204 0.024,1.732 0.354,2.062 L5.286,6.994 C5.316,7.042 5.352,7.084 5.394,7.126 C5.562,7.294 5.778,7.378 6,7.372 C6.216,7.372 6.438,7.294 6.606,7.126 C6.648,7.084 6.684,7.042 6.714,6.994 L11.646,2.062 C11.808,1.9 11.892,1.684 11.892,1.468 C11.892,1.252 11.808,1.036 11.646,0.874 C11.316,0.544 10.788,0.544 10.458,0.874 L6,5.332 Z" id="路径"></path>
                </g>
            </g>
        </g>
    </g>
</svg>