<?xml version="1.0" encoding="UTF-8"?>
<svg width="45px" height="45px" viewBox="0 0 45 45" version="1.1" xmlns="http://www.w3.org/2000/svg" xmlns:xlink="http://www.w3.org/1999/xlink">
    <title>logo_linked</title>
    <g id="页面-1" stroke="none" stroke-width="1" fill="none" fill-rule="evenodd" opacity="0.9">
        <g id="College-Counseling" transform="translate(-1275.000000, -4980.000000)" fill="#FFFFFF" fill-rule="nonzero">
            <g id="编组-46" transform="translate(0.000000, 4939.000000)">
                <g id="编组-33" transform="translate(120.000000, 41.000000)">
                    <g id="编组-31" transform="translate(879.000000, 0.000000)">
                        <g id="编组-49" transform="translate(276.000000, 0.000000)">
                            <path d="M45,22.5 C45,10.0738477 34.9261523,0 22.5,0 C10.0738477,0 0,10.0738477 0,22.5 C0,34.9261523 10.0738477,45 22.5,45 C34.9261523,45 45,34.9261523 45,22.5 Z M17.8632314,30.75 L13.8201747,30.75 L13.8201747,17.7249825 L17.8632314,17.7249825 L17.8632314,30.75 Z M15.8434061,15.9441917 C14.549083,15.9441917 13.5,14.893457 13.5,13.5970959 C13.5,12.3007348 14.549083,11.25 15.8434061,11.25 C17.1343231,11.25 18.1868122,12.3007348 18.1868122,13.5970959 C18.1834061,14.893457 17.1343231,15.9441917 15.8434061,15.9441917 Z M33,30.75 L28.9603493,30.75 L28.9603493,24.414888 C28.9603493,22.9036039 28.9331004,20.9624738 26.8587773,20.9624738 C24.7572052,20.9624738 24.4336245,22.6068055 24.4336245,24.3057208 L24.4336245,30.75 L20.3973799,30.75 L20.3973799,17.7249825 L24.2735371,17.7249825 L24.2735371,19.5057733 L24.3280349,19.5057733 C24.8662009,18.4823303 26.1843668,17.4008922 28.1531004,17.4008922 C32.2472489,17.4008922 33,20.0993702 33,23.6063681 L33,30.75 L33,30.75 Z" id="形状备份-4"></path>
                        </g>
                    </g>
                </g>
            </g>
        </g>
    </g>
</svg>