<?xml version="1.0" encoding="UTF-8"?>
<svg width="45px" height="45px" viewBox="0 0 45 45" version="1.1" xmlns="http://www.w3.org/2000/svg" xmlns:xlink="http://www.w3.org/1999/xlink">
    <title>logo_facebook</title>
    <g id="页面-1" stroke="none" stroke-width="1" fill="none" fill-rule="evenodd" opacity="0.9">
        <g id="College-Counseling" transform="translate(-999.000000, -4980.000000)" fill="#FFFFFF" fill-rule="nonzero">
            <g id="编组-46" transform="translate(0.000000, 4939.000000)">
                <g id="编组-33" transform="translate(120.000000, 41.000000)">
                    <g id="编组-45" transform="translate(879.000000, 0.000000)">
                        <path d="M45,22.5 C45,10.0738477 34.9261523,0 22.5,0 C10.0738477,0 0,10.0738477 0,22.5 C0,34.9261523 10.0738477,45 22.5,45 C34.9261523,45 45,34.9261523 45,22.5 Z M17.25,22.4839185 L17.25,18.5000136 L19.6914216,18.5000136 L19.6914216,16.0907143 C19.6914216,12.841151 20.6623302,10.5 24.2204308,10.5 L28.4522472,10.5 L28.4522472,14.4744715 L25.473325,14.4744715 C23.9800417,14.4744715 23.6412931,15.4661987 23.6412931,16.5052148 L23.6412931,18.5000136 L28.2327173,18.5000136 L27.6062499,22.4839185 L23.6413337,22.4839185 L23.6413337,34.5 L19.6915029,34.5 L19.6915029,22.4839185 L17.25,22.4839185 L17.25,22.4839185 Z" id="形状"></path>
                    </g>
                </g>
            </g>
        </g>
    </g>
</svg>