<?xml version="1.0" encoding="UTF-8"?>
<svg width="45px" height="45px" viewBox="0 0 45 45" version="1.1" xmlns="http://www.w3.org/2000/svg" xmlns:xlink="http://www.w3.org/1999/xlink">
    <title>logo_redbook</title>
    <g id="页面-1" stroke="none" stroke-width="1" fill="none" fill-rule="evenodd" opacity="0.9">
        <g id="College-Counseling" transform="translate(-1137.000000, -4980.000000)" fill="#FFFFFF" fill-rule="nonzero">
            <g id="编组-46" transform="translate(0.000000, 4939.000000)">
                <g id="编组-33" transform="translate(120.000000, 41.000000)">
                    <g id="编组-31" transform="translate(879.000000, 0.000000)">
                        <g id="编组-48" transform="translate(138.000000, 0.000000)">
                            <path d="M45,22.5 C45,10.0738477 34.9261523,0 22.5,0 C10.0738477,0 0,10.0738477 0,22.5 C0,34.9261523 10.0738477,45 22.5,45 C34.9261523,45 45,34.9261523 45,22.5 Z M33.2048234,17 L33.2048234,17.6757828 L34.0679348,17.6757828 C35.4466712,17.6757828 36.5675951,18.7657551 36.5675951,20.1064209 L36.5675951,20.1064209 L36.5675951,21.5451843 L36.8254076,21.5451843 C38.0247962,21.5451843 38.9887908,22.4825604 39,23.6706302 L39,23.6706302 L39,26.548157 C39,27.5618312 38.1593071,28.3793103 37.1168478,28.3793103 L37.1168478,28.3793103 L36.5451766,28.3793103 C35.5027174,28.3793103 34.6620245,27.5618312 34.6620245,26.548157 L34.6620245,26.548157 L36.7581522,26.548157 L36.7581522,24.2592152 C36.7581522,23.9649227 36.5115489,23.7360285 36.2201087,23.7360285 L36.2201087,23.7360285 L33.2048234,23.7360285 L33.2048234,28.3684106 L31.0078125,28.3684106 L31.0078125,23.7251288 L28.8108016,23.7251288 L28.8108016,21.5451843 L31.0078125,21.5451843 L31.0078125,19.8557273 L29.6290761,19.8557273 L29.6290761,17.6757828 L31.0078125,17.6757828 L31.0078125,17 L33.2048234,17 Z M12.5125679,17 L12.5121779,26.7308314 C12.5054454,26.8559606 12.395338,28.3575109 10.9881114,28.3575109 L10.9881114,28.3575109 L10.2595109,28.3575109 C10.2595109,28.3575109 8.8359375,28.2158145 8.8359375,26.5699564 L8.8359375,26.5699564 L10.2819293,26.5699564 L10.2819293,17 L12.5125679,17 Z M17.8705842,26.03587 C18.0499321,26.2102656 18.330163,26.1884661 18.330163,26.1884661 L21.2557745,26.1884661 L20.0788043,28.3575109 L17.3213315,28.3575109 C16.9402174,28.3575109 16.7608696,28.117717 16.7608696,28.117717 L16.7608696,28.117717 Z M28.0822011,17.6757828 L28.0822011,19.8993262 L26.6586277,19.8993262 L26.6586277,26.2538644 L28.8108016,26.2538644 L28.8108016,28.3466112 L21.2445652,28.3466112 L22.3094429,26.2538644 L24.4391984,26.2538644 L24.4391984,19.8993262 L23.0044158,19.8993262 L23.0044158,17.6757828 L28.0822011,17.6757828 Z M8.8359375,19.8993262 L8.83543898,20.0612388 C8.82774124,21.0807642 8.71732811,26.589221 7.2330163,27.2021403 L7.2330163,27.2021403 L6,25.0112961 C6,25.0112961 6.73980978,22.8095521 6.53804348,19.8993262 L6.53804348,19.8993262 L8.8359375,19.8993262 L8.8359375,19.8993262 Z M16.2788723,19.8993262 C16.077106,22.8095521 16.8169158,25.0221958 16.8057065,25.0112961 L16.8057065,25.0112961 L15.5726902,27.2021403 C14.0229477,26.5577893 13.981439,20.5029197 13.9809303,19.94107 L13.9809783,19.8993262 Z M21.5696332,17 L20.0227582,19.866627 C20.0115489,19.8884265 20.0003397,19.9211256 20.0003397,19.9538248 C20.0003397,20.0737218 20.1012228,20.1609195 20.2133152,20.1609195 L20.2133152,20.1609195 L20.3590353,20.1609195 L20.482337,19.9102259 L22.6345109,19.9102259 L20.7849864,23.441736 C20.7737772,23.4635355 20.7625679,23.4962346 20.7625679,23.5289338 C20.7625679,23.6488308 20.8634511,23.7360285 20.9755435,23.7360285 L20.9755435,23.7360285 L22.219769,23.7360285 L21.233356,25.4908839 L18.7561141,25.4908839 C17.6912364,25.447285 18.3525815,24.1720174 18.3525815,24.1720174 L18.3525815,24.1720174 L19.4847147,21.9048751 L17.9938859,21.9048751 C16.9402174,21.8612763 17.6015625,20.5969084 17.579144,20.5969084 L17.579144,20.5969084 L19.4174592,17 L21.5696332,17 Z M33.9894701,19.8448276 L33.1936141,19.8448276 L33.1936141,21.5342846 L34.3257473,21.5342846 L34.3257473,20.1718193 C34.3257473,19.9974237 34.1800272,19.8448276 33.9894701,19.8448276 L33.9894701,19.8448276 Z M37.8790761,17.6866825 C38.484375,17.6866825 38.9663723,18.1553706 38.9663723,18.7439556 C38.9663723,19.3216409 38.4731658,19.8012287 37.8790761,19.8012287 L37.8790761,19.8012287 L36.7917799,19.8012287 L36.7917799,18.7439556 C36.7917799,18.1553706 37.2737772,17.6866825 37.8790761,17.6866825 Z" id="形状备份-2"></path>
                        </g>
                    </g>
                </g>
            </g>
        </g>
    </g>
</svg>