<?xml version="1.0" encoding="UTF-8"?>
<svg width="46px" height="45px" viewBox="0 0 46 45" version="1.1" xmlns="http://www.w3.org/2000/svg" xmlns:xlink="http://www.w3.org/1999/xlink">
    <title>logo_wechat</title>
    <g id="页面-1" stroke="none" stroke-width="1" fill="none" fill-rule="evenodd">
        <g id="College-Counseling" transform="translate(-1206.000000, -4980.000000)" fill-rule="nonzero">
            <g id="编组-46" transform="translate(0.000000, 4939.000000)">
                <g id="编组-33" transform="translate(120.000000, 41.000000)">
                    <g id="编组-31" transform="translate(879.000000, 0.000000)">
                        <g id="微信" transform="translate(207.000000, 0.000000)">
                            <rect id="矩形" fill="#000000" opacity="0" x="0" y="0" width="44.7513812" height="44.7513812"></rect>
                            <path d="M45.2486188,22.5 C45.2486188,10.0738477 35.1747711,0 22.7486188,0 C10.3224664,0 0.248618785,10.0738477 0.248618785,22.5 C0.248618785,34.9261523 10.3224664,45 22.7486188,45 C35.1747711,45 45.2486188,34.9261523 45.2486188,22.5 Z M25.4685116,22.3174603 C25.0136431,22.3174603 24.5586188,22.8051187 24.5586188,23.4054556 C24.5586188,23.893204 25.0134093,24.3809524 25.4685116,24.3809524 C26.1511651,24.3809524 26.6386188,23.893204 26.6386188,23.4054556 C26.6386188,22.8051637 26.151204,22.3174603 25.4685116,22.3174603 Z M22.5461294,18.1904762 C23.1404105,18.1904762 23.5186188,17.777905 23.5186188,17.1586948 C23.5186188,16.5101415 23.1404105,16.1269841 22.5461294,16.1269841 C21.9788979,16.1269841 21.4386188,16.5101768 21.4386188,17.1586948 C21.4385864,17.7779758 21.9788979,18.1904762 22.5461294,18.1904762 Z M18.8231171,27.3880475 C17.6733496,27.3880475 16.8343975,27.1962518 15.7468975,26.8761958 L12.6086339,28.5079365 L13.5098907,25.7564603 C11.3037381,24.1569861 9.99861878,22.1415005 9.99861878,19.6780823 C9.99861878,15.3271703 13.9758716,12 18.8231544,12 C23.1110364,12 26.9329374,14.6234078 27.6786188,18.3345915 C27.3679151,18.2704806 27.0882147,18.2385978 26.8396667,18.2385978 C22.6138658,18.2385978 19.3514028,21.5016571 19.3514028,25.4367112 C19.3514028,26.1084375 19.4446363,26.7162829 19.5999881,27.3562031 C19.3514028,27.3880091 19.0716652,27.3880091 18.8230799,27.3880091 L18.8231171,27.3880475 Z M32.7878917,31.3028485 L33.4364315,33.6666667 L30.971599,32.2550923 C30.0311113,32.4519033 29.1229455,32.747415 28.1824578,32.747415 C23.8364165,32.747415 20.3986188,29.7272978 20.3986188,25.984858 C20.3986188,22.2424182 23.8364943,19.2222222 28.1824578,19.2222222 C32.3012729,19.2222222 35.9986188,22.2424182 35.9986188,25.984858 C35.9986188,28.0857235 34.6040676,29.9569434 32.7878917,31.3028879 L32.7878917,31.3028485 Z M16.3307243,16.1269841 C15.7778385,16.1269841 15.1986188,16.510144 15.1986188,17.1586064 C15.1986188,17.777799 15.7778069,18.1904762 16.3307243,18.1904762 C16.8573709,18.1904762 17.2786188,17.7777636 17.2786188,17.1586064 C17.2786188,16.5101793 16.8573709,16.1269841 16.3307243,16.1269841 Z M30.6831204,22.3174603 C30.1877881,22.3174603 29.7586188,22.8051187 29.7586188,23.4054556 C29.7586188,23.893204 30.1877881,24.3809524 30.6831204,24.3809524 C31.343326,24.3809524 31.8386188,23.893204 31.8386188,23.4054556 C31.8386188,22.8051637 31.343326,22.3174603 30.6831204,22.3174603 Z" id="形状备份-3" fill="#FFFFFF" opacity="0.9"></path>
                        </g>
                    </g>
                </g>
            </g>
        </g>
    </g>
</svg>