<?xml version="1.0" encoding="UTF-8"?>
<svg width="45px" height="45px" viewBox="0 0 45 45" version="1.1" xmlns="http://www.w3.org/2000/svg" xmlns:xlink="http://www.w3.org/1999/xlink">
    <title>logo_Instagram</title>
    <g id="页面-1" stroke="none" stroke-width="1" fill="none" fill-rule="evenodd" opacity="0.9">
        <g id="College-Counseling" transform="translate(-1068.000000, -4980.000000)" fill="#FFFFFF" fill-rule="nonzero">
            <g id="编组-46" transform="translate(0.000000, 4939.000000)">
                <g id="编组-33" transform="translate(120.000000, 41.000000)">
                    <g id="编组-31" transform="translate(879.000000, 0.000000)">
                        <g id="编组-47" transform="translate(69.000000, 0.000000)">
                            <path d="M22.5,0.248618785 C34.9261523,0.248618785 45,10.2668098 45,22.6243094 C45,34.981809 34.9261523,45 22.5,45 C10.0738477,45 0,34.981809 0,22.6243094 C0,10.2668098 10.0738477,0.248618785 22.5,0.248618785 Z M22.0522656,10.9995 C20.7082656,10.9985 19.3292656,10.9965 17.9632656,11.0735 C15.7552656,11.1795 14.2242656,11.7695 12.9992656,12.9875 C11.4302656,14.5485 11.1462656,16.4465 11.0742656,17.9235 C10.9972656,19.2895 10.9992656,20.6655 11.0002656,21.9965 L11.0002656,21.9965 L11.0012656,22.5625 L11.0002656,23.1275 L11.0001856,23.931716 C11.0016256,25.01002 11.0126656,26.1097 11.0742656,27.1985 C11.1812656,29.3945 11.7752656,30.9185 12.9992656,32.1375 C14.5672656,33.6965 16.4752656,33.9785 17.9602656,34.0505 C19.1522656,34.1175 20.3512656,34.1255 21.5222656,34.1255 C21.7052656,34.1255 21.8872656,34.1255 22.0682656,34.1245 L22.0682656,34.1245 L23.1822656,34.1245 L23.9928016,34.12814 C25.0799056,34.12926 26.1896656,34.1131 27.2872656,34.0515 C29.4952656,33.9435 31.0252656,33.3535 32.2502656,32.1375 C33.8182656,30.5785 34.1022656,28.6795 34.1742656,27.2015 C34.2542656,25.8565 34.2522656,24.4995 34.2502656,23.1865 L34.2502656,23.1865 L34.2492656,22.0085 L34.2497296,21.20198 C34.2485456,20.1207 34.2368656,19.0183 34.1752656,17.9255 C34.1022656,16.4455 33.8182656,14.5465 32.2502656,12.9875 C30.6802656,11.4275 28.7732656,11.1445 27.2892656,11.0735 C25.9162656,10.9965 24.5302656,10.9995 23.1962656,10.9995 L23.1962656,10.9995 L22.6252656,11.0005 Z M23.6904829,13.7486653 C25.3880385,13.7321454 27.9825814,13.7323947 29.1222656,14.1805 C29.5962656,14.3705 29.9332656,14.5915 30.2852656,14.9435 C30.6412656,15.2975 30.8632656,15.6325 31.0512656,16.0985 C31.5272656,17.2955 31.5002656,20.0985 31.4842656,21.7735 L31.4842656,21.7735 L31.4782656,22.5625 L31.4842656,23.3485 L31.4868081,23.6217834 C31.5017088,25.3129017 31.5021077,27.8865526 31.0492656,29.0215 C30.8582656,29.4945 30.6362656,29.8295 30.2822656,30.1785 C29.9262656,30.5315 29.5892656,30.7525 29.1202656,30.9405 C27.9172656,31.4155 25.1012656,31.3865 23.4152656,31.3735 L23.4152656,31.3735 L22.6222656,31.3675 L21.8262656,31.3735 L21.5516391,31.3757675 C19.8520025,31.389259 17.2618972,31.3925 16.1212656,30.9425 C15.6472656,30.7545 15.3102656,30.5335 14.9582656,30.1815 C14.6022656,29.8265 14.3802656,29.4905 14.1922656,29.0255 C13.7162656,27.8265 13.7442656,25.0265 13.7602656,23.3525 L13.7602656,23.3525 L13.7662656,22.5625 L13.7602656,21.7715 L13.7577148,21.4982088 C13.7427144,19.8070014 13.7413183,17.2325526 14.1922656,16.0995 C14.3812656,15.6295 14.6032656,15.2945 14.9572656,14.9445 C15.3182656,14.5885 15.6562656,14.3665 16.1202656,14.1815 C17.0822656,13.8035 19.0752656,13.7445 20.6962656,13.7445 C21.1042656,13.7445 21.4892656,13.7475 21.8282656,13.7515 L21.8282656,13.7515 L22.6222656,13.7565 L23.4162656,13.7515 Z M22.6219656,16.4464 C19.2319656,16.4464 16.4749656,19.1904 16.4749656,22.5624 C16.4749656,25.9354 19.2319656,28.6784 22.6219656,28.6784 C26.0119656,28.6784 28.7689656,25.9354 28.7689656,22.5624 C28.7689656,19.1904 26.0119656,16.4464 22.6219656,16.4464 Z M22.6219656,19.2064 C24.4829656,19.2064 25.9979656,20.7114 25.9979656,22.5624 C25.9979656,24.4124 24.4829656,25.9184 22.6219656,25.9184 C20.7599656,25.9184 19.2459656,24.4124 19.2459656,22.5624 C19.2459656,20.7114 20.7599656,19.2064 22.6219656,19.2064 Z M28.6307656,14.8739 C27.6807656,14.8739 26.9067656,15.6439 26.9067656,16.5889 C26.9067656,17.5359 27.6807656,18.3049 28.6307656,18.3049 C29.5807656,18.3049 30.3537656,17.5359 30.3537656,16.5879 C30.3497656,15.6429 29.5767656,14.8739 28.6307656,14.8739 Z" id="形状结合"></path>
                        </g>
                    </g>
                </g>
            </g>
        </g>
    </g>
</svg>